<?xml version="1.0" encoding="UTF-8" standalone="no"?>
<!DOCTYPE svg PUBLIC "-//W3C//DTD SVG 1.1//EN" "http://www.w3.org/Graphics/SVG/1.1/DTD/svg11.dtd">
<svg width="100%" height="100%" viewBox="0 0 720 200" version="1.1" xmlns="http://www.w3.org/2000/svg" xmlns:xlink="http://www.w3.org/1999/xlink" xml:space="preserve" xmlns:serif="http://www.serif.com/" style="fill-rule:evenodd;clip-rule:evenodd;stroke-linejoin:round;stroke-miterlimit:2;">
    <path d="M200,16C200,7.169 192.831,0 184,0L16,0C7.169,0 0,7.169 0,16L0,184C0,192.831 7.169,200 16,200L184,200C192.831,200 200,192.831 200,184L200,16Z" style="fill:white;"/>
    <g transform="matrix(0.925119,0,0,0.925119,-6.65639,52.7515)">
        <g transform="matrix(118.904,0,0,118.904,228.075,92.8678)">
            <path d="M0.392,0.007C0.327,0.007 0.268,-0.008 0.214,-0.039C0.159,-0.069 0.116,-0.111 0.085,-0.166C0.053,-0.22 0.037,-0.281 0.037,-0.349C0.037,-0.417 0.053,-0.478 0.085,-0.532C0.116,-0.586 0.159,-0.628 0.214,-0.659C0.268,-0.689 0.327,-0.704 0.392,-0.704C0.457,-0.704 0.517,-0.689 0.572,-0.659C0.626,-0.628 0.669,-0.586 0.7,-0.532C0.731,-0.478 0.747,-0.417 0.747,-0.349C0.747,-0.281 0.731,-0.22 0.7,-0.166C0.669,-0.111 0.626,-0.069 0.572,-0.039C0.517,-0.008 0.457,0.007 0.392,0.007ZM0.392,-0.092C0.438,-0.092 0.479,-0.102 0.515,-0.124C0.551,-0.145 0.579,-0.174 0.6,-0.214C0.62,-0.253 0.63,-0.298 0.63,-0.349C0.63,-0.4 0.62,-0.445 0.6,-0.484C0.579,-0.523 0.551,-0.552 0.515,-0.573C0.479,-0.594 0.438,-0.604 0.392,-0.604C0.346,-0.604 0.305,-0.594 0.269,-0.573C0.233,-0.552 0.205,-0.523 0.185,-0.484C0.164,-0.445 0.154,-0.4 0.154,-0.349C0.154,-0.298 0.164,-0.253 0.185,-0.214C0.205,-0.174 0.233,-0.145 0.269,-0.124C0.305,-0.102 0.346,-0.092 0.392,-0.092Z" style="fill:rgb(28,25,23);fill-rule:nonzero;"/>
        </g>
        <g transform="matrix(118.904,0,0,118.904,321.295,92.8678)">
            <path d="M0.189,-0.47C0.208,-0.495 0.235,-0.517 0.268,-0.534C0.301,-0.551 0.339,-0.56 0.381,-0.56C0.429,-0.56 0.473,-0.548 0.513,-0.525C0.552,-0.501 0.583,-0.468 0.606,-0.425C0.629,-0.382 0.64,-0.333 0.64,-0.278C0.64,-0.223 0.629,-0.173 0.606,-0.13C0.583,-0.086 0.552,-0.052 0.513,-0.028C0.473,-0.003 0.429,0.009 0.381,0.009C0.339,0.009 0.302,0.001 0.269,-0.017C0.236,-0.034 0.21,-0.055 0.189,-0.08L0.189,0.262L0.075,0.262L0.075,-0.551L0.189,-0.551L0.189,-0.47ZM0.524,-0.278C0.524,-0.316 0.516,-0.349 0.501,-0.377C0.485,-0.404 0.464,-0.425 0.439,-0.44C0.413,-0.454 0.385,-0.461 0.356,-0.461C0.327,-0.461 0.3,-0.454 0.275,-0.439C0.249,-0.424 0.228,-0.403 0.213,-0.375C0.197,-0.347 0.189,-0.314 0.189,-0.276C0.189,-0.238 0.197,-0.205 0.213,-0.177C0.228,-0.148 0.249,-0.127 0.275,-0.112C0.3,-0.097 0.327,-0.09 0.356,-0.09C0.385,-0.09 0.413,-0.097 0.439,-0.113C0.464,-0.128 0.485,-0.149 0.501,-0.178C0.516,-0.207 0.524,-0.24 0.524,-0.278Z" style="fill:rgb(28,25,23);fill-rule:nonzero;"/>
        </g>
        <g transform="matrix(118.904,0,0,118.904,401.912,92.8678)">
            <path d="M0.58,-0.289C0.58,-0.268 0.579,-0.25 0.576,-0.233L0.155,-0.233C0.158,-0.189 0.175,-0.154 0.204,-0.127C0.233,-0.1 0.269,-0.087 0.312,-0.087C0.373,-0.087 0.417,-0.113 0.442,-0.164L0.565,-0.164C0.548,-0.113 0.518,-0.072 0.475,-0.04C0.431,-0.007 0.377,0.009 0.312,0.009C0.259,0.009 0.212,-0.003 0.171,-0.027C0.129,-0.05 0.096,-0.084 0.073,-0.127C0.049,-0.169 0.037,-0.219 0.037,-0.276C0.037,-0.333 0.049,-0.383 0.072,-0.426C0.094,-0.468 0.127,-0.502 0.169,-0.525C0.21,-0.548 0.258,-0.56 0.312,-0.56C0.364,-0.56 0.41,-0.549 0.451,-0.526C0.492,-0.503 0.523,-0.471 0.546,-0.431C0.569,-0.389 0.58,-0.342 0.58,-0.289ZM0.461,-0.325C0.46,-0.367 0.445,-0.401 0.416,-0.426C0.387,-0.451 0.35,-0.464 0.307,-0.464C0.268,-0.464 0.234,-0.452 0.206,-0.427C0.178,-0.401 0.161,-0.368 0.156,-0.325L0.461,-0.325Z" style="fill:rgb(28,25,23);fill-rule:nonzero;"/>
        </g>
        <g transform="matrix(118.904,0,0,118.904,475.275,92.8678)">
            <path d="M0.353,-0.56C0.396,-0.56 0.435,-0.551 0.47,-0.533C0.504,-0.515 0.531,-0.488 0.55,-0.453C0.569,-0.418 0.579,-0.375 0.579,-0.325L0.579,-0L0.466,-0L0.466,-0.308C0.466,-0.357 0.454,-0.395 0.429,-0.422C0.404,-0.448 0.371,-0.461 0.328,-0.461C0.285,-0.461 0.252,-0.448 0.227,-0.422C0.202,-0.395 0.189,-0.357 0.189,-0.308L0.189,-0L0.075,-0L0.075,-0.551L0.189,-0.551L0.189,-0.488C0.208,-0.511 0.232,-0.528 0.261,-0.541C0.29,-0.554 0.32,-0.56 0.353,-0.56Z" style="fill:rgb(28,25,23);fill-rule:nonzero;"/>
        </g>
        <g transform="matrix(118.904,0,0,118.904,552.444,92.8678)">
            <path d="M0.524,-0.695L0.524,-0.602L0.339,-0.602L0.339,-0L0.225,-0L0.225,-0.602L0.039,-0.602L0.039,-0.695L0.524,-0.695Z" style="fill:rgb(28,25,23);fill-rule:nonzero;"/>
        </g>
        <g transform="matrix(118.904,0,0,118.904,619.505,92.8678)">
            <path d="M0.188,-0.695L0.188,-0.252C0.188,-0.199 0.202,-0.16 0.23,-0.133C0.257,-0.106 0.296,-0.093 0.345,-0.093C0.395,-0.093 0.434,-0.106 0.462,-0.133C0.489,-0.16 0.503,-0.199 0.503,-0.252L0.503,-0.695L0.617,-0.695L0.617,-0.254C0.617,-0.197 0.605,-0.149 0.58,-0.11C0.555,-0.071 0.522,-0.041 0.481,-0.022C0.44,-0.003 0.394,0.007 0.344,0.007C0.294,0.007 0.249,-0.003 0.208,-0.022C0.167,-0.041 0.134,-0.071 0.11,-0.11C0.086,-0.149 0.074,-0.197 0.074,-0.254L0.074,-0.695L0.188,-0.695Z" style="fill:rgb(28,25,23);fill-rule:nonzero;"/>
        </g>
        <g transform="matrix(118.904,0,0,118.904,701.549,92.8678)">
            <path d="M0.524,-0.695L0.524,-0.602L0.339,-0.602L0.339,-0L0.225,-0L0.225,-0.602L0.039,-0.602L0.039,-0.695L0.524,-0.695Z" style="fill:rgb(28,25,23);fill-rule:nonzero;"/>
        </g>
    </g>
    <g transform="matrix(1.33333,0,0,1.20939,-6.66667,-34.3151)">
        <rect x="20" y="140" width="120" height="37.209" style="fill:rgb(28,25,23);"/>
    </g>
    <g transform="matrix(1.125,0,0,0.916667,-2.5,15)">
        <rect x="20" y="60" width="40" height="120" style="fill:rgb(28,25,23);"/>
    </g>
    <g transform="matrix(0.785714,0,0,1.125,38.5714,-2.5)">
        <rect x="40" y="20" width="140" height="40" style="fill:url(#_Linear1);"/>
    </g>
    <g transform="matrix(1.125,0,0,1,-22.5,0)">
        <rect x="140" y="20" width="40" height="160" style="fill:rgb(199,0,10);"/>
    </g>
    <defs>
        <linearGradient id="_Linear1" x1="0" y1="0" x2="1" y2="0" gradientUnits="userSpaceOnUse" gradientTransform="matrix(140,0,0,40,40,40)"><stop offset="0" style="stop-color:rgb(199,0,10);stop-opacity:1"/><stop offset="0.48" style="stop-color:rgb(153,7,13);stop-opacity:1"/><stop offset="1" style="stop-color:rgb(28,25,23);stop-opacity:1"/></linearGradient>
    </defs>
</svg>
