<?xml version="1.0" encoding="UTF-8" standalone="no"?>
<!DOCTYPE svg PUBLIC "-//W3C//DTD SVG 1.1//EN" "http://www.w3.org/Graphics/SVG/1.1/DTD/svg11.dtd">
<svg width="100%" height="100%" viewBox="0 0 1000 1000" version="1.1" xmlns="http://www.w3.org/2000/svg" xmlns:xlink="http://www.w3.org/1999/xlink" xml:space="preserve" xmlns:serif="http://www.serif.com/" style="fill-rule:evenodd;clip-rule:evenodd;stroke-linejoin:round;stroke-miterlimit:2;">
    <g id="レイヤー1">
        <rect x="-144.201" y="-118.643" width="1351.95" height="1418.07" style="fill:white;"/>
    </g>
    <g transform="matrix(32.9024,0,0,32.9024,-3636.03,-7443.52)">
        <g transform="matrix(12,0,0,12,114.906,239.627)">
            <path d="M0.039,-0.7L0.561,-0.7L0.561,-0.587L0.295,-0.587L0.361,-0.528L0.361,-0L0.24,-0L0.24,-0.5L0.211,-0.587L0.039,-0.587L0.039,-0.7Z" style="fill-rule:nonzero;"/>
        </g>
        <g transform="matrix(12,0,0,12,122.106,239.627)">
            <path d="M0.421,-0.7L0.421,-0.133L0.401,-0.113L0.208,-0.113L0.179,-0.157L0.179,-0.7L0.058,-0.7L0.058,-0.134L0.149,-0L0.366,-0L0.421,-0.034L0.421,-0L0.542,-0L0.542,-0.7L0.421,-0.7Z" style="fill-rule:nonzero;"/>
        </g>
        <g transform="matrix(12,0,0,12,129.306,239.627)">
            <path d="M0.039,-0.7L0.561,-0.7L0.561,-0.587L0.295,-0.587L0.361,-0.528L0.361,-0L0.24,-0L0.24,-0.5L0.211,-0.587L0.039,-0.587L0.039,-0.7Z" style="fill-rule:nonzero;"/>
        </g>
        <g transform="matrix(12,0,0,12,114.906,251.627)">
            <path d="M0.058,-0.7L0.058,-0.587L0.239,-0.587L0.239,-0.113L0.058,-0.113L0.058,-0L0.542,-0L0.542,-0.113L0.36,-0.113L0.36,-0.587L0.542,-0.587L0.542,-0.7L0.058,-0.7Z" style="fill:rgb(199,0,10);fill-rule:nonzero;"/>
        </g>
        <g transform="matrix(12,0,0,12,122.106,251.627)">
            <path d="M0.058,-0.7L0.058,-0.587L0.239,-0.587L0.239,-0.113L0.058,-0.113L0.058,-0L0.542,-0L0.542,-0.113L0.36,-0.113L0.36,-0.587L0.542,-0.587L0.542,-0.7L0.058,-0.7Z" style="fill:rgb(199,0,10);fill-rule:nonzero;"/>
        </g>
        <g transform="matrix(12,0,0,12,129.306,251.627)">
            <path d="M0.165,-0.7L0.465,-0.7L0.546,-0.578L0.466,-0.494L0.405,-0.586L0.211,-0.586L0.193,-0.566L0.193,-0.157L0.222,-0.113L0.414,-0.113L0.485,-0.184L0.548,-0.09L0.462,-0L0.162,-0L0.072,-0.134L0.072,-0.606L0.165,-0.7Z" style="fill:rgb(199,0,10);fill-rule:nonzero;"/>
        </g>
    </g>
</svg>
